<svg width="50" height="50" viewBox="0 0 50 50" fill="none" xmlns="http://www.w3.org/2000/svg">
<path d="M37.6944 47.2222H12.3056C11.7711 47.2095 11.2444 47.0918 10.7555 46.8755C10.2665 46.6592 9.82504 46.3488 9.45615 45.9618C9.08727 45.5749 8.79824 45.1191 8.60558 44.6204C8.41292 44.1217 8.32041 43.5899 8.33333 43.0555V15.5972H11.1111V43.0555C11.0979 43.2252 11.1183 43.3959 11.1712 43.5577C11.2241 43.7195 11.3085 43.8692 11.4195 43.9983C11.5305 44.1274 11.666 44.2332 11.818 44.3098C11.9701 44.3864 12.1358 44.4321 12.3056 44.4444H37.6944C37.8642 44.4321 38.0299 44.3864 38.182 44.3098C38.334 44.2332 38.4695 44.1274 38.5805 43.9983C38.6915 43.8692 38.7759 43.7195 38.8288 43.5577C38.8817 43.3959 38.9022 43.2252 38.8889 43.0555V15.5972H41.6667V43.0555C41.6796 43.5899 41.5871 44.1217 41.3944 44.6204C41.2018 45.1191 40.9127 45.5749 40.5438 45.9618C40.175 46.3488 39.7335 46.6592 39.2445 46.8755C38.7556 47.0918 38.2289 47.2095 37.6944 47.2222Z" fill="black"/>
<path d="M42.75 12.4999H6.94445C6.57609 12.4999 6.22282 12.3536 5.96235 12.0931C5.70189 11.8327 5.55556 11.4794 5.55556 11.1111C5.55556 10.7427 5.70189 10.3894 5.96235 10.129C6.22282 9.8685 6.57609 9.72217 6.94445 9.72217H42.75C43.1184 9.72217 43.4716 9.8685 43.7321 10.129C43.9926 10.3894 44.1389 10.7427 44.1389 11.1111C44.1389 11.4794 43.9926 11.8327 43.7321 12.0931C43.4716 12.3536 43.1184 12.4999 42.75 12.4999Z" fill="black"/>
<path d="M29.1667 18.0554H31.9444V38.8888H29.1667V18.0554Z" fill="black"/>
<path d="M18.0556 18.0554H20.8333V38.8888H18.0556V18.0554Z" fill="black"/>
<path d="M31.9444 8.13894H29.3056V5.55561H20.6944V8.13894H18.0556V5.55561C18.0547 4.84234 18.3282 4.15606 18.8194 3.63894C19.3107 3.12182 19.9821 2.81349 20.6944 2.77783H29.3056C30.0179 2.81349 30.6893 3.12182 31.1806 3.63894C31.6718 4.15606 31.9453 4.84234 31.9444 5.55561V8.13894Z" fill="black"/>
</svg>
